<?xml version="1.0" encoding="iso-8859-1"?>
<!-- Generator: Adobe Illustrator 19.1.0, SVG Export Plug-In . SVG Version: 6.00 Build 0)  -->
<svg version="1.1"   xmlns:xlink="http://www.w3.org/1999/xlink" x="0px" y="0px"
	 viewBox="0 0 502.25 502.25" style="enableBackground:new 0 0 502.25 502.25;" xml:space="preserve">
<g>
	<g>
		<path style="fill:#231F20;" d="M278.211,382.789h-54.155c-19.093,0-34.639-14.681-34.639-32.733v-8.399h-9.74
			c-19.11,0-34.639-14.699-34.639-32.768v-50.184c0-18.052,15.528-32.75,34.639-32.75h9.74v-8.382
			c0-18.052,15.528-32.75,34.639-32.75h54.155c19.11,0,34.639,14.699,34.639,32.75v8.382h9.74c19.11,0,34.639,14.699,34.639,32.75
			v50.184c0,18.069-15.528,32.768-34.639,32.768h-9.74v8.399C312.85,368.107,297.304,382.789,278.211,382.789z M179.678,243.617
			c-9.37,0-16.993,6.776-16.993,15.105v50.184c0,8.346,7.623,15.122,16.993,15.122h18.563c4.87,0,8.823,3.953,8.823,8.823v17.222
			c0,8.329,7.623,15.087,16.993,15.087h54.155c9.37,0,16.993-6.776,16.993-15.087v-17.222c0-4.87,3.953-8.823,8.823-8.823h18.563
			c9.37,0,16.993-6.776,16.993-15.122v-50.184c0-8.346-7.623-15.105-16.993-15.105h-18.563c-4.87,0-8.823-3.953-8.823-8.823v-17.205
			c0-8.346-7.623-15.105-16.993-15.105h-54.155c-9.37,0-16.993,6.776-16.993,15.105v17.205c0,4.87-3.953,8.823-8.823,8.823
			C198.241,243.617,179.678,243.617,179.678,243.617z"/>
		<path style="fill:#231F20;" d="M349.006,85.617H153.262c-13.34,0-24.192-10.834-24.192-24.175v-37.25
			C129.07,10.852,139.922,0,153.262,0h195.726c13.34,0,24.192,10.852,24.192,24.192v37.25
			C373.198,74.783,362.328,85.617,349.006,85.617z M153.262,17.646c-3.547,0-6.547,3-6.547,6.547v37.25c0,3.529,3,6.529,6.547,6.529
			h195.726c3.547,0,6.547-3,6.547-6.529v-37.25c0.018-3.547-2.982-6.547-6.529-6.547H153.262z"/>
		<path style="fill:#231F20;" d="M325.572,502.25H176.695c-42.014,0-76.212-29.857-76.212-66.577V215.084
			c0-9.388,2.382-18.669,7.076-27.563l0.371-1.482l25.763-69.189c4.588-12.299,17.575-20.575,32.327-20.575h171.869
			c15.105,0,28.18,8.523,32.556,21.21l24.016,69.665c4.853,9.035,7.305,18.404,7.305,27.916v220.607
			C401.784,472.394,367.587,502.25,325.572,502.25z M166.02,113.921c-7.305,0-13.799,3.741-15.793,9.105l-26.663,71.977
			c-3.617,6.564-5.453,13.323-5.453,20.081v220.589c0,26.963,26.274,48.932,58.566,48.932h148.877
			c32.292,0,58.566-21.951,58.566-48.932V215.084c0-6.899-1.923-13.781-5.735-20.522l-0.794-1.906l-23.822-69.401
			c-1.888-5.505-8.417-9.317-15.881-9.317H166.02V113.921z"/>
		<path style="fill:#231F20;" d="M328.731,448.36H173.537c-3.953,0-7.164-3.229-7.164-7.164l0,0c0-3.935,3.229-7.164,7.164-7.164
			h155.194c3.935,0,7.164,3.229,7.164,7.164l0,0C335.895,445.131,332.684,448.36,328.731,448.36z"/>
	</g>
	<g>
	</g>
	<g>
	</g>
	<g>
	</g>
	<g>
	</g>
	<g>
	</g>
	<g>
	</g>
	<g>
	</g>
	<g>
	</g>
	<g>
	</g>
	<g>
	</g>
	<g>
	</g>
	<g>
	</g>
	<g>
	</g>
	<g>
	</g>
	<g>
	</g>
</g>
<g>
</g>
<g>
</g>
<g>
</g>
<g>
</g>
<g>
</g>
<g>
</g>
<g>
</g>
<g>
</g>
<g>
</g>
<g>
</g>
<g>
</g>
<g>
</g>
<g>
</g>
<g>
</g>
<g>
</g>
</svg>
