<svg fill='#ccc' id="outline" enableBackground="new 0 0 512 512" height="512" viewBox="0 0 512 512" width="512" ><path d="m168 296c4.4179688 0 8-3.5820313 8-8v-8c0-4.4179688-3.5820313-8-8-8s-8 3.5820313-8 8v8c0 4.4179688 3.5820313 8 8 8z"/><path d="m128 336c13.2333984 0 24-10.7666016 24-24 0-4.4179688-3.5820313-8-8-8s-8 3.5820313-8 8c0 4.4111328-3.5888672 8-8 8s-8-3.5888672-8-8c0-4.4179688-3.5820313-8-8-8s-8 3.5820313-8 8c0 13.2333984 10.7666016 24 24 24z"/><path d="m509.6567383 202.3432617.0004883-.0004883-13.6572266-13.6572265v-140.6855469c0-2.2089844-.8955078-4.2089844-2.3432617-5.6567383l.0004883-.0004883-40-40c-1.5009766-1.5-3.5351563-2.3427734-5.6572266-2.3427734h-64v.0004883c-2.0473633 0-4.0947266.7807617-5.6572266 2.3422852l-40 40c-1.5 1.5009765-2.3427734 3.5351562-2.3427734 5.6572265v16h-24c-2.1220703 0-4.15625.8427734-5.6572266 2.3427734l-32 32c-1.5297852 1.5297852-2.322998 3.5761719-2.3234863 5.6572266h-.0192871v200c0 4.4179688 3.5820313 8 8 8h224c4.4179688 0 8-3.5820313 8-8v-96c0-2.2089844-.8955078-4.2089844-2.3432617-5.6567383zm-47.9995117-48.0004883c-1.5009766-1.5-3.5351563-2.3427734-5.6572266-2.3427734h-24v-40-8-48h48v116.6855469zm-45.6572266-47.0292968v4.6865234 40h-48v-44.6865234l24-24zm52.6860352-67.3134766h-41.371582l-24-24h41.3720703zm-116.6860352 11.3134766 32-32 32 32.0009766v33.3710938l-18.3427734-18.3427734c-1.5625-1.5615234-3.6098633-2.3422852-5.6572266-2.3422852v-.0004884h-40zm-36.6865234 28.6865234h57.3720703l-16 16h-57.3720703zm-27.3134766 32h64v44.6855469l-45.6572266 45.6572266c-1.5 1.5009765-2.3427734 3.5351562-2.3427734 5.6572265v88h-16zm80 184h-16v-72c0-4.4111328 3.5888672-8 8-8s8 3.5888672 8 8zm32 0h-16v-72c0-13.2333984-10.7666016-24-24-24s-24 10.7666016-24 24v72h-16v-84.6865234l40-40 40 40zm-20.685791-128h44.685791 28.6865234l31.9992676 32h-73.3723145zm116.685791 128h-80v-80h80z"/><path d="m440 280h32c4.4179688 0 8-3.5820313 8-8v-16c0-13.2333984-10.7666016-24-24-24s-24 10.7666016-24 24v16c0 4.4179688 3.5820313 8 8 8zm8-24c0-4.4111328 3.5888672-8 8-8s8 3.5888672 8 8v8h-16z"/><path d="m304 160h32c4.4179688 0 8-3.5820313 8-8v-8c0-13.2333984-10.7666016-24-24-24s-24 10.7666016-24 24v8c0 4.4179688 3.5820313 8 8 8zm16-24c4.4111328 0 8 3.5888672 8 8h-16c0-4.4111328 3.5888672-8 8-8z"/><path d="m393.8242188 344h-59.1953125c-3.3017579-9.3125-12.1992188-16-22.6289063-16-13.2333984 0-24 10.7666016-24 24v48 32c0 8.8222656-7.1777344 16-16 16s-16-7.1777344-16-16v-8c0-22.0556641-17.9443359-40-40-40h-40c0-1.2119141-.2773438-2.3564453-.7597656-3.3857422 21.8869629-11.1806641 39.5874023-29.9724121 49.1318359-53.5603027 18.1013184-3.8681641 31.6279297-20.1049805 31.6279297-39.0539551v-16-32c0-41.9580078-20.0427246-80.3891602-54.0268555-104.4206543 9.0830078-14.0725098 14.0268555-30.6633301 14.0268555-47.5793457 0-48.5234375-39.4765625-88-88-88s-88 39.4765625-88 88c0 16.9282227 4.9506836 33.5305176 14.0229492 47.581543-33.9821777 24.0317383-54.0229492 62.4624023-54.0229492 104.418457v48c0 18.949707 13.5270996 35.1875 31.6289063 39.0546875 9.5512695 23.5913086 27.2497559 42.380127 49.1311035 53.559082-.482666 1.029541-.7600098 2.1740723-.7600098 3.3862305h-40c-22.0556641 0-40 17.9443359-40 40v80c0 4.4179688 3.5820313 8 8 8h192c4.4179688 0 8-3.5820313 8-8v-18.7929688c13.2099609 16.3320313 33.40625 26.7929688 56 26.7929688h16c39.7011719 0 72-32.2988281 72-72v-34.456543l49.6103516-18.6030273c8.6064453-3.2275391 14.3896484-11.5722656 14.3896484-20.7646484 0-12.2275391-9.9482422-22.1757813-22.1757812-22.1757813zm-242.5458985 118.0966797-23.2783203 29.0966797-23.2783203-29.0966797 14.5012207-58.005127 8.7770996-8.7770996 8.7770996 8.7770996zm-55.2783203-57.4101563v-12.6865234h12.6865234zm51.3134766-12.6865234h12.6865234v12.6865234zm36.6865234-56c-4.4111328 0-8-3.5888672-8-8s3.5888672-8 8-8 8 3.5888672 8 8-3.5888672 8-8 8zm46.1865234-28.7121582c1.1914063-6.317627 1.8134766-12.7617188 1.8134766-19.2878418v-9.5939941c2.6323242.5310059 5.3005371.935791 8 1.201416v8.3925781c0 7.8369141-3.8596191 14.8989258-9.8134766 19.2878418zm-102.1865234-291.2878418c39.7011719 0 72 32.2988281 72 72 0 16.46875-5.3964844 31.9189453-15.6425781 44.7255859-10.0859375 12.7910156-24.3105469 21.8095703-40.0537109 25.3935547-1.4697266.3349609-2.8144531 1.078125-3.8808594 2.1435547l-12.4228516 12.4238281-12.4228516-12.4238281c-1.0664063-1.0654297-2.4111328-1.8085938-3.8808594-2.1435547-15.7431641-3.5839844-29.96875-12.6025391-40.0898438-25.4375-10.2099608-12.7617187-15.6064452-28.211914-15.6064452-44.6816406 0-39.7011719 32.2988281-72 72-72zm-112 224c0-36.9521484 17.777832-70.7783203 47.8806152-91.7839355 11.3376465 12.1174316 25.9519043 20.8330078 41.9699707 24.9489746l16.4921875 16.4921875c1.5625 1.5615234 3.609375 2.3427734 5.6572266 2.3427734s4.0947266-.78125 5.6572266-2.3427734l16.4921875-16.4921875c16.0297852-4.1191406 30.652832-12.8430176 41.972168-24.9470215 30.1010742 21.0051269 47.8784179 54.8310547 47.8784179 91.7819824v23.5087891c-14.0849609-1.7421875-27.0810547-8.0810547-37.2402344-18.3027344-12.0976562-12.0234375-18.7597656-28.078125-18.7597656-45.2060547 0-4.4179688-3.5820313-8-8-8s-8 3.5820313-8 8c0 35.2900391-28.7099609 64-64 64h-88zm0 48v-8h8v8c0 6.5273438.6225586 12.972168 1.8129883 19.2871094-5.9536133-4.3886719-9.8129883-11.4506836-9.8129883-19.2871094zm24 0v-8h40v8c0 4.4179688 3.5820313 8 8 8s8-3.5820313 8-8v-8h8c31.6035156 0 58.984375-18.4179688 71.9716797-45.0859375 3.8554688 7.9257813 9.0537109 15.2246094 15.4746094 21.6054688 7.1713867 7.2158203 15.4956055 12.8657227 24.5537109 16.8254395v14.6550292c0 10.0410156-1.6757813 19.8535156-4.9882813 29.1894531-.9428711 2.6848145-2.0224609 5.2932129-3.2023926 7.8381348-1.4694823-11.8352051-11.5830077-21.0275879-23.8093261-21.0275879-13.2333984 0-24 10.7666016-24 24s10.7666016 24 24 24c1.6757813 0 3.3117676-.1740723 4.8916016-.5024414-16.0424805 15.3632812-37.7041016 24.5024414-60.8916016 24.5024414-23.1845703 0-44.8432617-9.1364746-60.887207-24.5014648 1.5783691.3276367 3.2128906.5014648 4.887207.5014648 13.2333984 0 24-10.7666016 24-24s-10.7666016-24-24-24c-12.2258301 0-22.3388672 9.1916504-23.809082 21.0258789-1.1838379-2.552002-2.2666016-5.1679688-3.2124023-7.8608398-3.303711-9.3125-4.9785157-19.125-4.9785157-29.1650391zm24 40c0-4.4111328 3.5888672-8 8-8s8 3.5888672 8 8-3.5888672 8-8 8-8-3.5888672-8-8zm-48 96c0-13.2333984 10.7666016-24 24-24h40v24c0 3.2353516 1.9492188 6.1523438 4.9384766 7.390625.9902343.4101563 2.0292968.609375 3.0595703.609375 2.0820313 0 4.1279297-.8125 5.6591797-2.3427734l3.5769043-3.5769043-8.994873 35.979248c-.6064453 2.421875-.0458984 4.9882813 1.5136719 6.9384766l21.6015624 27.0019531h-47.3544922v-56c0-4.4179688-3.5820313-8-8-8s-8 3.5820313-8 8v56h-32zm264 72h-16c-30.8789063 0-56-25.1210938-56-56 0-4.4179688-3.5820313-8-8-8s-8 3.5820313-8 8v56h-47.3544922l21.6015625-27.0019531c1.5595703-1.9501953 2.1201172-4.5166016 1.5136719-6.9384766l-8.994873-35.979248 3.5769043 3.5769043c1.5312499 1.5302734 3.5771484 2.3427734 5.6591796 2.3427734 1.0302734 0 2.0703125-.1992188 3.0595703-.609375 2.9892579-1.2382812 4.9384766-4.1552734 4.9384766-7.390625v-24h40c13.2333984 0 24 10.7666016 24 24v8c0 17.6445313 14.3554688 32 32 32s32-14.3554688 32-32v-24h32v32c0 30.8789063-25.1210937 56-56 56zm115.9931641-124.0410156-53.444336 20.0410156h-38.5488281v-40c0-4.4111328 3.5888672-8 8-8s8 3.5888672 8 8c0 4.4179688 3.5820313 8 8 8h65.8242188c3.4052734 0 6.1757812 2.7705078 6.1757812 6.1757813 0 2.5605468-1.6103516 4.883789-4.0068359 5.7832031z"/><path d="m112 145.359375c10.7011719 0 20.7460938-4.1572266 28.2822266-11.7021484l33.375-33.375c15.5947266-15.5947266 15.5947266-40.9697266 0-56.5644531l-12.6875-12.6875c-3.125-3.1230469-8.1894531-3.1230469-11.3144531 0l-22.625 22.625c-3.1240234 3.125-3.1240234 8.1894531 0 11.3144531l7.0312499 7.0302734-22.0615234 22.0615234-7.0302734-7.03125c-3.125-3.1230469-8.1894531-3.1230469-11.3144531 0l-22.625 22.625c-3.1240234 3.125-3.1240234 8.1894531 0 11.3144531l12.6845703 12.6835938c7.5390625 7.5488281 17.5839843 11.7060547 28.2851562 11.7060547zm-12.6875-41.3583984 7.0302734 7.03125c3.125 3.1230469 8.1894531 3.1230469 11.3144531 0l33.375-33.375c3.1240234-3.125 3.1240234-8.1894531 0-11.3144531l-7.03125-7.0302734 11.3115235-11.3115235 7.0302734 7.03125c9.3564453 9.3554688 9.3564453 24.5800781 0 33.9355469l-33.3779297 33.3789063c-4.5166015 4.5224608-10.5419921 7.0126952-16.9648437 7.0126952s-12.4482422-2.4902344-16.9677734-7.0166016l-7.03125-7.0302734z"/><circle cx="456" cy="72" r="8"/><circle cx="456" cy="104" r="8"/><circle cx="456" cy="136" r="8"/></svg>